<?xml version="1.0" encoding="utf-8" standalone="no"?>
<!DOCTYPE svg PUBLIC "-//W3C//DTD SVG 1.1//EN"
  "http://www.w3.org/Graphics/SVG/1.1/DTD/svg11.dtd">
<!-- Created with matplotlib (http://matplotlib.org/) -->
<svg height="399pt" version="1.1" viewBox="0 0 744 399" width="744pt" xmlns="http://www.w3.org/2000/svg" xmlns:xlink="http://www.w3.org/1999/xlink">
 <defs>
  <style type="text/css">
*{stroke-linecap:butt;stroke-linejoin:round;}
  </style>
 </defs>
 <g id="figure_1">
  <g id="patch_1">
   <path d="
M0 399.514
L744.371 399.514
L744.371 0
L0 0
z
" style="fill:#ffffff;"/>
  </g>
  <g id="axes_1">
   <g id="patch_2">
    <path d="
M48.6937 359.1
L495.094 359.1
L495.094 13.5
L48.6937 13.5
z
" style="fill:#ffffff;"/>
   </g>
   <g id="line2d_1">
    <path clip-path="url(#pb722c94cc3)" d="
M48.6937 53.3132
L192.973 53.3132
L237.643 53.3132
L264.935 53.3132
L284.644 53.3132
L300.081 53.3132
L312.771 53.3132
L323.546 53.3132
L332.909 53.3132
L341.187 53.3132
L348.606 53.3132
L355.328 53.3132
L361.472 53.3132
L367.13 53.3132
L372.373 53.3132
L377.259 53.3132
L381.832 53.3132
L386.13 53.3132
L390.184 53.3132
L394.021 53.3132
L397.663 53.3132
L401.128 53.3132
L404.433 53.3132
L407.593 53.3132
L410.618 53.3132
L413.521 53.3132
L416.311 53.3132
L418.996 53.3132
L421.584 53.3132
L424.082 53.3132
L426.495 53.3132
L428.83 53.3132
L431.09 53.3132
L433.282 53.3132
L435.409 53.3132
L437.474 53.3132
L439.481 53.3132
L441.433 53.3132
L443.334 53.3132
L445.185 53.3132
L446.99 53.3132
L448.75 53.3132
L450.468 53.3132
L452.146 53.3132
L453.785 53.3132
L455.388 53.3132
L456.955 53.3132
L458.489 53.3132
L459.991 53.3132
L461.461 53.3132" style="fill:none;stroke:#000000;stroke-dasharray:6.000000,6.000000;stroke-dashoffset:0.0;"/>
   </g>
   <g id="line2d_2">
    <path clip-path="url(#pb722c94cc3)" d="
M443.775 53.3132
L444.184 53.3132
L444.59 53.3132
L444.993 53.3132
L445.395 53.3132
L445.794 53.3132
L446.191 53.3132
L446.586 53.3132
L446.978 53.3132
L447.369 53.3132
L447.757 53.3132
L448.143 53.3132
L448.527 53.3132
L448.91 53.3132
L449.29 53.3132
L449.668 53.3132
L450.044 53.3132
L450.418 53.3132
L450.79 53.3132
L451.16 53.3132
L451.529 53.3132
L451.895 53.3132
L452.26 53.3132
L452.623 53.3132
L452.984 53.3132
L453.343 53.3132
L453.7 53.3132
L454.056 53.3132
L454.409 53.3132
L454.761 53.3132
L455.112 53.3132
L455.46 53.3132
L455.807 53.3132
L456.153 53.3132
L456.496 53.3132
L456.838 53.3132
L457.178 53.3132
L457.517 53.3132
L457.854 53.3132
L458.19 53.3132
L458.524 53.3132
L458.856 53.3132
L459.187 53.3132
L459.516 53.3132
L459.844 53.3132
L460.171 53.3132
L460.496 53.3132
L460.819 53.3132
L461.141 53.3132
L461.461 53.3132" style="fill:none;stroke:#000000;stroke-linecap:square;stroke-width:2.0;"/>
   </g>
   <g id="line2d_3">
    <path clip-path="url(#pb722c94cc3)" d="
M48.6937 328.596
L177.857 238.598
L221.316 208.317
L248.161 189.612
L267.636 176.042
L282.93 165.386
L295.523 156.612
L306.228 149.153
L315.538 142.666
L323.775 136.926
L331.161 131.78
L337.856 127.115
L343.977 122.85
L349.616 118.921
L354.843 115.279
L359.714 111.885
L364.274 108.708
L368.561 105.721
L372.605 102.903
L376.434 100.235
L380.067 97.7033
L383.525 95.2938
L386.824 92.9954
L389.977 90.7983
L392.997 88.6939
L395.895 86.6748
L398.68 84.7342
L401.361 82.8664
L403.945 81.066
L406.439 79.3284
L408.849 77.6493
L411.18 76.0249
L413.438 74.4517
L415.626 72.9267
L417.75 71.4469
L419.813 70.0098
L421.817 68.613
L423.767 67.2542
L425.666 65.9315
L427.515 64.643
L429.318 63.3869
L431.076 62.1617
L432.792 60.9659
L434.468 59.7981
L436.106 58.657
L437.707 57.5414
L439.273 56.4503
L440.805 55.3825
L442.306 54.3371
L443.775 53.3132" style="fill:none;stroke:#000000;stroke-linecap:square;stroke-width:2.0;"/>
   </g>
   <g id="line2d_4">
    <path clip-path="url(#pb722c94cc3)" d="
M48.6937 177.21
L192.973 177.21
L237.643 177.21
L264.935 177.21
L284.644 177.21
L300.081 177.21
L312.771 177.21
L323.546 177.21
L332.909 177.21
L341.187 177.21
L348.606 177.21
L355.328 177.21
L361.472 177.21
L367.13 177.21
L372.373 177.21
L377.259 177.21
L381.832 177.21
L386.13 177.21
L390.184 177.21
L394.021 177.21
L397.663 177.21
L401.128 177.21
L404.433 177.21
L407.593 177.21
L410.618 177.21
L413.521 177.21
L416.311 177.21
L418.996 177.21
L421.584 177.21
L424.082 177.21
L426.495 177.21
L428.83 177.21
L431.09 177.21
L433.282 177.21
L435.409 177.21
L437.474 177.21
L439.481 177.21
L441.433 177.21
L443.334 177.21
L445.185 177.21
L446.99 177.21
L448.75 177.21
L450.468 177.21
L452.146 177.21
L453.785 177.21
L455.388 177.21
L456.955 177.21
L458.489 177.21
L459.991 177.21
L461.461 177.21" style="fill:none;stroke:#ff0000;stroke-dasharray:6.000000,6.000000;stroke-dashoffset:0.0;"/>
   </g>
   <g id="line2d_5">
    <path clip-path="url(#pb722c94cc3)" d="
M265.961 177.21
L284.358 177.21
L298.979 177.21
L311.113 177.21
L321.485 177.21
L330.542 177.21
L338.581 177.21
L345.807 177.21
L352.37 177.21
L358.381 177.21
L363.926 177.21
L369.072 177.21
L373.873 177.21
L378.372 177.21
L382.604 177.21
L386.6 177.21
L390.385 177.21
L393.98 177.21
L397.402 177.21
L400.669 177.21
L403.793 177.21
L406.786 177.21
L409.659 177.21
L412.421 177.21
L415.08 177.21
L417.644 177.21
L420.119 177.21
L422.512 177.21
L424.827 177.21
L427.07 177.21
L429.244 177.21
L431.354 177.21
L433.404 177.21
L435.397 177.21
L437.336 177.21
L439.223 177.21
L441.062 177.21
L442.855 177.21
L444.605 177.21
L446.312 177.21
L447.98 177.21
L449.609 177.21
L451.203 177.21
L452.761 177.21
L454.287 177.21
L455.78 177.21
L457.244 177.21
L458.677 177.21
L460.083 177.21
L461.461 177.21" style="fill:none;stroke:#ff0000;stroke-linecap:square;stroke-width:2.0;"/>
   </g>
   <g id="line2d_6">
    <path clip-path="url(#pb722c94cc3)" d="
M48.6937 328.596
L73.0074 311.655
L91.122 299.033
L105.565 288.97
L117.576 280.6
L127.859 273.436
L136.847 267.173
L144.832 261.609
L152.014 256.605
L158.541 252.057
L164.522 247.89
L170.041 244.044
L175.165 240.474
L179.946 237.142
L184.428 234.02
L188.646 231.081
L192.629 228.306
L196.401 225.677
L199.985 223.18
L203.398 220.802
L206.655 218.532
L209.771 216.361
L212.756 214.281
L215.622 212.284
L218.378 210.364
L221.031 208.515
L223.59 206.733
L226.06 205.012
L228.448 203.348
L230.759 201.738
L232.997 200.178
L235.167 198.666
L237.274 197.198
L239.32 195.772
L241.31 194.386
L243.245 193.037
L245.13 191.724
L246.966 190.445
L248.756 189.197
L250.503 187.98
L252.208 186.792
L253.873 185.632
L255.501 184.498
L257.092 183.389
L258.649 182.305
L260.172 181.243
L261.664 180.204
L263.125 179.186
L264.557 178.188
L265.961 177.21" style="fill:none;stroke:#000000;stroke-linecap:square;stroke-width:2.0;"/>
   </g>
   <g id="line2d_7">
    <path clip-path="url(#pb722c94cc3)" d="
M48.6937 315.45
L192.973 315.45
L237.643 315.45
L264.935 315.45
L284.644 315.45
L300.081 315.45
L312.771 315.45
L323.546 315.45
L332.909 315.45
L341.187 315.45
L348.606 315.45
L355.328 315.45
L361.472 315.45
L367.13 315.45
L372.373 315.45
L377.259 315.45
L381.832 315.45
L386.13 315.45
L390.184 315.45
L394.021 315.45
L397.663 315.45
L401.128 315.45
L404.433 315.45
L407.593 315.45
L410.618 315.45
L413.521 315.45
L416.311 315.45
L418.996 315.45
L421.584 315.45
L424.082 315.45
L426.495 315.45
L428.83 315.45
L431.09 315.45
L433.282 315.45
L435.409 315.45
L437.474 315.45
L439.481 315.45
L441.433 315.45
L443.334 315.45
L445.185 315.45
L446.99 315.45
L448.75 315.45
L450.468 315.45
L452.146 315.45
L453.785 315.45
L455.388 315.45
L456.955 315.45
L458.489 315.45
L459.991 315.45
L461.461 315.45" style="fill:none;stroke:#0000ff;stroke-dasharray:6.000000,6.000000;stroke-dashoffset:0.0;"/>
   </g>
   <g id="line2d_8">
    <path clip-path="url(#pb722c94cc3)" d="
M67.5612 315.45
L195.735 315.45
L239.105 315.45
L265.916 315.45
L285.374 315.45
L300.656 315.45
L313.242 315.45
L323.942 315.45
L333.248 315.45
L341.482 315.45
L348.866 315.45
L355.558 315.45
L361.678 315.45
L367.315 315.45
L372.541 315.45
L377.41 315.45
L381.97 315.45
L386.256 315.45
L390.3 315.45
L394.127 315.45
L397.76 315.45
L401.218 315.45
L404.516 315.45
L407.669 315.45
L410.688 315.45
L413.586 315.45
L416.371 315.45
L419.051 315.45
L421.635 315.45
L424.128 315.45
L426.538 315.45
L428.869 315.45
L431.126 315.45
L433.315 315.45
L435.438 315.45
L437.501 315.45
L439.505 315.45
L441.455 315.45
L443.353 315.45
L445.202 315.45
L447.005 315.45
L448.763 315.45
L450.479 315.45
L452.155 315.45
L453.793 315.45
L455.394 315.45
L456.959 315.45
L458.492 315.45
L459.992 315.45
L461.461 315.45" style="fill:none;stroke:#0000ff;stroke-linecap:square;stroke-width:2.0;"/>
   </g>
   <g id="line2d_9">
    <path clip-path="url(#pb722c94cc3)" d="
M48.6937 328.596
L49.133 328.29
L49.5695 327.986
L50.0034 327.683
L50.4347 327.383
L50.8634 327.084
L51.2896 326.787
L51.7132 326.492
L52.1344 326.199
L52.553 325.907
L52.9693 325.617
L53.3831 325.328
L53.7946 325.042
L54.2037 324.757
L54.6104 324.473
L55.0149 324.191
L55.4171 323.911
L55.8171 323.633
L56.2148 323.355
L56.6103 323.08
L57.0037 322.806
L57.3949 322.533
L57.784 322.262
L58.1709 321.992
L58.5558 321.724
L58.9387 321.457
L59.3195 321.192
L59.6982 320.928
L60.075 320.666
L60.4498 320.405
L60.8227 320.145
L61.1936 319.886
L61.5626 319.629
L61.9298 319.373
L62.295 319.119
L62.6584 318.866
L63.02 318.614
L63.3797 318.363
L63.7376 318.114
L64.0938 317.865
L64.4482 317.619
L64.8008 317.373
L65.1518 317.128
L65.501 316.885
L65.8485 316.643
L66.1943 316.402
L66.5385 316.162
L66.881 315.923
L67.2219 315.686
L67.5612 315.45" style="fill:none;stroke:#000000;stroke-linecap:square;stroke-width:2.0;"/>
   </g>
   <g id="line2d_10">
    <path clip-path="url(#pb722c94cc3)" d="
M48.6937 328.596
L192.973 228.066
L237.643 196.941
L264.935 177.924
L284.644 164.192
L300.081 153.436
L312.771 144.594
L323.546 137.086
L332.909 130.562
L341.187 124.794
L348.606 119.625
L355.328 114.941
L361.472 110.66
L367.13 106.718
L372.373 103.064
L377.259 99.6603
L381.832 96.4741
L386.13 93.4792
L390.184 90.6542
L394.021 87.9806
L397.663 85.4431
L401.128 83.0286
L404.433 80.7256
L407.593 78.5243
L410.618 76.416
L413.521 74.3934
L416.311 72.4496
L418.996 70.5787
L421.584 68.7755
L424.082 67.0352
L426.495 65.3537
L428.83 63.727
L431.09 62.1517
L433.282 60.6246
L435.409 59.143
L437.474 57.7041
L439.481 56.3056
L441.433 54.9452
L443.334 53.6209
L445.185 52.331
L446.99 51.0735
L448.75 49.847
L450.468 48.6499
L452.146 47.4809
L453.785 46.3387
L455.388 45.2221
L456.955 44.1299
L458.489 43.0612
L459.991 42.0148
L461.461 40.99" style="fill:none;stroke:#000000;stroke-dasharray:6.000000,6.000000;stroke-dashoffset:0.0;stroke-width:2.0;"/>
   </g>
   <g id="patch_3">
    <path d="
M48.6937 359.1
L495.094 359.1" style="fill:none;stroke:#000000;stroke-linecap:square;stroke-linejoin:miter;"/>
   </g>
   <g id="patch_4">
    <path d="
M48.6937 13.5
L495.094 13.5" style="fill:none;stroke:#000000;stroke-linecap:square;stroke-linejoin:miter;"/>
   </g>
   <g id="patch_5">
    <path d="
M48.6937 359.1
L48.6937 13.5" style="fill:none;stroke:#000000;stroke-linecap:square;stroke-linejoin:miter;"/>
   </g>
   <g id="patch_6">
    <path d="
M495.094 359.1
L495.094 13.5" style="fill:none;stroke:#000000;stroke-linecap:square;stroke-linejoin:miter;"/>
   </g>
   <g id="matplotlib.axis_1">
    <g id="xtick_1">
     <g id="line2d_11">
      <defs>
       <path d="
M0 0
L0 -4" id="mc7db9fdffb" style="stroke:#000000;stroke-width:0.5;"/>
      </defs>
      <g>
       <use style="stroke:#000000;stroke-width:0.5;" x="48.69375" xlink:href="#mc7db9fdffb" y="359.1"/>
      </g>
     </g>
     <g id="line2d_12">
      <defs>
       <path d="
M0 0
L0 4" id="m5a7d422ac3" style="stroke:#000000;stroke-width:0.5;"/>
      </defs>
      <g>
       <use style="stroke:#000000;stroke-width:0.5;" x="48.69375" xlink:href="#m5a7d422ac3" y="13.5"/>
      </g>
     </g>
     <g id="text_1">
      <!-- $\mathdefault{2^{-5}}$ -->
      <defs>
       <path d="
M10.7969 72.9062
L49.5156 72.9062
L49.5156 64.5938
L19.8281 64.5938
L19.8281 46.7344
Q21.9688 47.4688 24.1094 47.8281
Q26.2656 48.1875 28.4219 48.1875
Q40.625 48.1875 47.75 41.5
Q54.8906 34.8125 54.8906 23.3906
Q54.8906 11.625 47.5625 5.09375
Q40.2344 -1.42188 26.9062 -1.42188
Q22.3125 -1.42188 17.5469 -0.640625
Q12.7969 0.140625 7.71875 1.70312
L7.71875 11.625
Q12.1094 9.23438 16.7969 8.0625
Q21.4844 6.89062 26.7031 6.89062
Q35.1562 6.89062 40.0781 11.3281
Q45.0156 15.7656 45.0156 23.3906
Q45.0156 31 40.0781 35.4375
Q35.1562 39.8906 26.7031 39.8906
Q22.75 39.8906 18.8125 39.0156
Q14.8906 38.1406 10.7969 36.2812
z
" id="BitstreamVeraSans-Roman-35"/>
       <path d="
M4.89062 31.3906
L31.2031 31.3906
L31.2031 23.3906
L4.89062 23.3906
z
" id="BitstreamVeraSans-Roman-2d"/>
       <path d="
M19.1875 8.29688
L53.6094 8.29688
L53.6094 0
L7.32812 0
L7.32812 8.29688
Q12.9375 14.1094 22.625 23.8906
Q32.3281 33.6875 34.8125 36.5312
Q39.5469 41.8438 41.4219 45.5312
Q43.3125 49.2188 43.3125 52.7812
Q43.3125 58.5938 39.2344 62.25
Q35.1562 65.9219 28.6094 65.9219
Q23.9688 65.9219 18.8125 64.3125
Q13.6719 62.7031 7.8125 59.4219
L7.8125 69.3906
Q13.7656 71.7812 18.9375 73
Q24.125 74.2188 28.4219 74.2188
Q39.75 74.2188 46.4844 68.5469
Q53.2188 62.8906 53.2188 53.4219
Q53.2188 48.9219 51.5312 44.8906
Q49.8594 40.875 45.4062 35.4062
Q44.1875 33.9844 37.6406 27.2188
Q31.1094 20.4531 19.1875 8.29688" id="BitstreamVeraSans-Roman-32"/>
      </defs>
      <g transform="translate(39.39375 373.084375)scale(0.12 -0.12)">
       <use transform="translate(0.0 0.46562500000000284)" xlink:href="#BitstreamVeraSans-Roman-32"/>
       <use transform="translate(63.623046875 52.965625)scale(0.7)" xlink:href="#BitstreamVeraSans-Roman-2d"/>
       <use transform="translate(88.8818359375 52.965625)scale(0.7)" xlink:href="#BitstreamVeraSans-Roman-35"/>
      </g>
     </g>
    </g>
    <g id="xtick_2">
     <g id="line2d_13">
      <g>
       <use style="stroke:#000000;stroke-width:0.5;" x="98.29375" xlink:href="#mc7db9fdffb" y="359.1"/>
      </g>
     </g>
     <g id="line2d_14">
      <g>
       <use style="stroke:#000000;stroke-width:0.5;" x="98.29375" xlink:href="#m5a7d422ac3" y="13.5"/>
      </g>
     </g>
     <g id="text_2">
      <!-- $\mathdefault{2^{-4}}$ -->
      <defs>
       <path d="
M37.7969 64.3125
L12.8906 25.3906
L37.7969 25.3906
z

M35.2031 72.9062
L47.6094 72.9062
L47.6094 25.3906
L58.0156 25.3906
L58.0156 17.1875
L47.6094 17.1875
L47.6094 0
L37.7969 0
L37.7969 17.1875
L4.89062 17.1875
L4.89062 26.7031
z
" id="BitstreamVeraSans-Roman-34"/>
      </defs>
      <g transform="translate(88.99375 373.084375)scale(0.12 -0.12)">
       <use transform="translate(0.0 0.46562500000000284)" xlink:href="#BitstreamVeraSans-Roman-32"/>
       <use transform="translate(63.623046875 52.965625)scale(0.7)" xlink:href="#BitstreamVeraSans-Roman-2d"/>
       <use transform="translate(88.8818359375 52.965625)scale(0.7)" xlink:href="#BitstreamVeraSans-Roman-34"/>
      </g>
     </g>
    </g>
    <g id="xtick_3">
     <g id="line2d_15">
      <g>
       <use style="stroke:#000000;stroke-width:0.5;" x="147.89375" xlink:href="#mc7db9fdffb" y="359.1"/>
      </g>
     </g>
     <g id="line2d_16">
      <g>
       <use style="stroke:#000000;stroke-width:0.5;" x="147.89375" xlink:href="#m5a7d422ac3" y="13.5"/>
      </g>
     </g>
     <g id="text_3">
      <!-- $\mathdefault{2^{-3}}$ -->
      <defs>
       <path d="
M40.5781 39.3125
Q47.6562 37.7969 51.625 33
Q55.6094 28.2188 55.6094 21.1875
Q55.6094 10.4062 48.1875 4.48438
Q40.7656 -1.42188 27.0938 -1.42188
Q22.5156 -1.42188 17.6562 -0.515625
Q12.7969 0.390625 7.625 2.20312
L7.625 11.7188
Q11.7188 9.32812 16.5938 8.10938
Q21.4844 6.89062 26.8125 6.89062
Q36.0781 6.89062 40.9375 10.5469
Q45.7969 14.2031 45.7969 21.1875
Q45.7969 27.6406 41.2812 31.2656
Q36.7656 34.9062 28.7188 34.9062
L20.2188 34.9062
L20.2188 43.0156
L29.1094 43.0156
Q36.375 43.0156 40.2344 45.9219
Q44.0938 48.8281 44.0938 54.2969
Q44.0938 59.9062 40.1094 62.9062
Q36.1406 65.9219 28.7188 65.9219
Q24.6562 65.9219 20.0156 65.0312
Q15.375 64.1562 9.8125 62.3125
L9.8125 71.0938
Q15.4375 72.6562 20.3438 73.4375
Q25.25 74.2188 29.5938 74.2188
Q40.8281 74.2188 47.3594 69.1094
Q53.9062 64.0156 53.9062 55.3281
Q53.9062 49.2656 50.4375 45.0938
Q46.9688 40.9219 40.5781 39.3125" id="BitstreamVeraSans-Roman-33"/>
      </defs>
      <g transform="translate(138.59375 373.204375)scale(0.12 -0.12)">
       <use transform="translate(0.0 0.546875)" xlink:href="#BitstreamVeraSans-Roman-32"/>
       <use transform="translate(63.623046875 53.046875)scale(0.7)" xlink:href="#BitstreamVeraSans-Roman-2d"/>
       <use transform="translate(88.8818359375 53.046875)scale(0.7)" xlink:href="#BitstreamVeraSans-Roman-33"/>
      </g>
     </g>
    </g>
    <g id="xtick_4">
     <g id="line2d_17">
      <g>
       <use style="stroke:#000000;stroke-width:0.5;" x="197.49375" xlink:href="#mc7db9fdffb" y="359.1"/>
      </g>
     </g>
     <g id="line2d_18">
      <g>
       <use style="stroke:#000000;stroke-width:0.5;" x="197.49375" xlink:href="#m5a7d422ac3" y="13.5"/>
      </g>
     </g>
     <g id="text_4">
      <!-- $\mathdefault{2^{-2}}$ -->
      <g transform="translate(188.19375 373.204375)scale(0.12 -0.12)">
       <use transform="translate(0.0 0.546875)" xlink:href="#BitstreamVeraSans-Roman-32"/>
       <use transform="translate(63.623046875 53.046875)scale(0.7)" xlink:href="#BitstreamVeraSans-Roman-2d"/>
       <use transform="translate(88.8818359375 53.046875)scale(0.7)" xlink:href="#BitstreamVeraSans-Roman-32"/>
      </g>
     </g>
    </g>
    <g id="xtick_5">
     <g id="line2d_19">
      <g>
       <use style="stroke:#000000;stroke-width:0.5;" x="247.09375" xlink:href="#mc7db9fdffb" y="359.1"/>
      </g>
     </g>
     <g id="line2d_20">
      <g>
       <use style="stroke:#000000;stroke-width:0.5;" x="247.09375" xlink:href="#m5a7d422ac3" y="13.5"/>
      </g>
     </g>
     <g id="text_5">
      <!-- $\mathdefault{2^{-1}}$ -->
      <defs>
       <path d="
M12.4062 8.29688
L28.5156 8.29688
L28.5156 63.9219
L10.9844 60.4062
L10.9844 69.3906
L28.4219 72.9062
L38.2812 72.9062
L38.2812 8.29688
L54.3906 8.29688
L54.3906 0
L12.4062 0
z
" id="BitstreamVeraSans-Roman-31"/>
      </defs>
      <g transform="translate(237.79375 373.084375)scale(0.12 -0.12)">
       <use transform="translate(0.0 0.46562500000000284)" xlink:href="#BitstreamVeraSans-Roman-32"/>
       <use transform="translate(63.623046875 52.965625)scale(0.7)" xlink:href="#BitstreamVeraSans-Roman-2d"/>
       <use transform="translate(88.8818359375 52.965625)scale(0.7)" xlink:href="#BitstreamVeraSans-Roman-31"/>
      </g>
     </g>
    </g>
    <g id="xtick_6">
     <g id="line2d_21">
      <g>
       <use style="stroke:#000000;stroke-width:0.5;" x="296.69375" xlink:href="#mc7db9fdffb" y="359.1"/>
      </g>
     </g>
     <g id="line2d_22">
      <g>
       <use style="stroke:#000000;stroke-width:0.5;" x="296.69375" xlink:href="#m5a7d422ac3" y="13.5"/>
      </g>
     </g>
     <g id="text_6">
      <!-- $\mathdefault{2^{0}}$ -->
      <defs>
       <path d="
M31.7812 66.4062
Q24.1719 66.4062 20.3281 58.9062
Q16.5 51.4219 16.5 36.375
Q16.5 21.3906 20.3281 13.8906
Q24.1719 6.39062 31.7812 6.39062
Q39.4531 6.39062 43.2812 13.8906
Q47.125 21.3906 47.125 36.375
Q47.125 51.4219 43.2812 58.9062
Q39.4531 66.4062 31.7812 66.4062
M31.7812 74.2188
Q44.0469 74.2188 50.5156 64.5156
Q56.9844 54.8281 56.9844 36.375
Q56.9844 17.9688 50.5156 8.26562
Q44.0469 -1.42188 31.7812 -1.42188
Q19.5312 -1.42188 13.0625 8.26562
Q6.59375 17.9688 6.59375 36.375
Q6.59375 54.8281 13.0625 64.5156
Q19.5312 74.2188 31.7812 74.2188" id="BitstreamVeraSans-Roman-30"/>
      </defs>
      <g transform="translate(288.89375 373.204375)scale(0.12 -0.12)">
       <use transform="translate(0.0 0.546875)" xlink:href="#BitstreamVeraSans-Roman-32"/>
       <use transform="translate(63.623046875 53.046875)scale(0.7)" xlink:href="#BitstreamVeraSans-Roman-30"/>
      </g>
     </g>
    </g>
    <g id="xtick_7">
     <g id="line2d_23">
      <g>
       <use style="stroke:#000000;stroke-width:0.5;" x="346.29375" xlink:href="#mc7db9fdffb" y="359.1"/>
      </g>
     </g>
     <g id="line2d_24">
      <g>
       <use style="stroke:#000000;stroke-width:0.5;" x="346.29375" xlink:href="#m5a7d422ac3" y="13.5"/>
      </g>
     </g>
     <g id="text_7">
      <!-- $\mathdefault{2^{1}}$ -->
      <g transform="translate(338.49375 373.084375)scale(0.12 -0.12)">
       <use transform="translate(0.0 0.46562500000000284)" xlink:href="#BitstreamVeraSans-Roman-32"/>
       <use transform="translate(63.623046875 52.965625)scale(0.7)" xlink:href="#BitstreamVeraSans-Roman-31"/>
      </g>
     </g>
    </g>
    <g id="xtick_8">
     <g id="line2d_25">
      <g>
       <use style="stroke:#000000;stroke-width:0.5;" x="395.89375" xlink:href="#mc7db9fdffb" y="359.1"/>
      </g>
     </g>
     <g id="line2d_26">
      <g>
       <use style="stroke:#000000;stroke-width:0.5;" x="395.89375" xlink:href="#m5a7d422ac3" y="13.5"/>
      </g>
     </g>
     <g id="text_8">
      <!-- $\mathdefault{2^{2}}$ -->
      <g transform="translate(388.09375 373.204375)scale(0.12 -0.12)">
       <use transform="translate(0.0 0.546875)" xlink:href="#BitstreamVeraSans-Roman-32"/>
       <use transform="translate(63.623046875 53.046875)scale(0.7)" xlink:href="#BitstreamVeraSans-Roman-32"/>
      </g>
     </g>
    </g>
    <g id="xtick_9">
     <g id="line2d_27">
      <g>
       <use style="stroke:#000000;stroke-width:0.5;" x="445.49375" xlink:href="#mc7db9fdffb" y="359.1"/>
      </g>
     </g>
     <g id="line2d_28">
      <g>
       <use style="stroke:#000000;stroke-width:0.5;" x="445.49375" xlink:href="#m5a7d422ac3" y="13.5"/>
      </g>
     </g>
     <g id="text_9">
      <!-- $\mathdefault{2^{3}}$ -->
      <g transform="translate(437.69375 373.204375)scale(0.12 -0.12)">
       <use transform="translate(0.0 0.546875)" xlink:href="#BitstreamVeraSans-Roman-32"/>
       <use transform="translate(63.623046875 53.046875)scale(0.7)" xlink:href="#BitstreamVeraSans-Roman-33"/>
      </g>
     </g>
    </g>
    <g id="xtick_10">
     <g id="line2d_29">
      <g>
       <use style="stroke:#000000;stroke-width:0.5;" x="495.09375" xlink:href="#mc7db9fdffb" y="359.1"/>
      </g>
     </g>
     <g id="line2d_30">
      <g>
       <use style="stroke:#000000;stroke-width:0.5;" x="495.09375" xlink:href="#m5a7d422ac3" y="13.5"/>
      </g>
     </g>
     <g id="text_10">
      <!-- $\mathdefault{2^{4}}$ -->
      <g transform="translate(487.29375 373.084375)scale(0.12 -0.12)">
       <use transform="translate(0.0 0.46562500000000284)" xlink:href="#BitstreamVeraSans-Roman-32"/>
       <use transform="translate(63.623046875 52.965625)scale(0.7)" xlink:href="#BitstreamVeraSans-Roman-34"/>
      </g>
     </g>
    </g>
    <g id="xtick_11">
     <g id="line2d_31">
      <defs>
       <path d="
M0 0
L0 -2" id="mc21db286a6" style="stroke:#000000;stroke-width:0.5;"/>
      </defs>
      <g>
       <use style="stroke:#000000;stroke-width:0.5;" x="48.69375" xlink:href="#mc21db286a6" y="359.1"/>
      </g>
     </g>
     <g id="line2d_32">
      <defs>
       <path d="
M0 0
L0 2" id="ma9c915e141" style="stroke:#000000;stroke-width:0.5;"/>
      </defs>
      <g>
       <use style="stroke:#000000;stroke-width:0.5;" x="48.69375" xlink:href="#ma9c915e141" y="13.5"/>
      </g>
     </g>
    </g>
    <g id="xtick_12">
     <g id="line2d_33">
      <g>
       <use style="stroke:#000000;stroke-width:0.5;" x="98.29375" xlink:href="#mc21db286a6" y="359.1"/>
      </g>
     </g>
     <g id="line2d_34">
      <g>
       <use style="stroke:#000000;stroke-width:0.5;" x="98.29375" xlink:href="#ma9c915e141" y="13.5"/>
      </g>
     </g>
    </g>
    <g id="xtick_13">
     <g id="line2d_35">
      <g>
       <use style="stroke:#000000;stroke-width:0.5;" x="147.89375" xlink:href="#mc21db286a6" y="359.1"/>
      </g>
     </g>
     <g id="line2d_36">
      <g>
       <use style="stroke:#000000;stroke-width:0.5;" x="147.89375" xlink:href="#ma9c915e141" y="13.5"/>
      </g>
     </g>
    </g>
    <g id="xtick_14">
     <g id="line2d_37">
      <g>
       <use style="stroke:#000000;stroke-width:0.5;" x="197.49375" xlink:href="#mc21db286a6" y="359.1"/>
      </g>
     </g>
     <g id="line2d_38">
      <g>
       <use style="stroke:#000000;stroke-width:0.5;" x="197.49375" xlink:href="#ma9c915e141" y="13.5"/>
      </g>
     </g>
    </g>
    <g id="xtick_15">
     <g id="line2d_39">
      <g>
       <use style="stroke:#000000;stroke-width:0.5;" x="247.09375" xlink:href="#mc21db286a6" y="359.1"/>
      </g>
     </g>
     <g id="line2d_40">
      <g>
       <use style="stroke:#000000;stroke-width:0.5;" x="247.09375" xlink:href="#ma9c915e141" y="13.5"/>
      </g>
     </g>
    </g>
    <g id="xtick_16">
     <g id="line2d_41">
      <g>
       <use style="stroke:#000000;stroke-width:0.5;" x="296.69375" xlink:href="#mc21db286a6" y="359.1"/>
      </g>
     </g>
     <g id="line2d_42">
      <g>
       <use style="stroke:#000000;stroke-width:0.5;" x="296.69375" xlink:href="#ma9c915e141" y="13.5"/>
      </g>
     </g>
    </g>
    <g id="xtick_17">
     <g id="line2d_43">
      <g>
       <use style="stroke:#000000;stroke-width:0.5;" x="346.29375" xlink:href="#mc21db286a6" y="359.1"/>
      </g>
     </g>
     <g id="line2d_44">
      <g>
       <use style="stroke:#000000;stroke-width:0.5;" x="346.29375" xlink:href="#ma9c915e141" y="13.5"/>
      </g>
     </g>
    </g>
    <g id="xtick_18">
     <g id="line2d_45">
      <g>
       <use style="stroke:#000000;stroke-width:0.5;" x="395.89375" xlink:href="#mc21db286a6" y="359.1"/>
      </g>
     </g>
     <g id="line2d_46">
      <g>
       <use style="stroke:#000000;stroke-width:0.5;" x="395.89375" xlink:href="#ma9c915e141" y="13.5"/>
      </g>
     </g>
    </g>
    <g id="xtick_19">
     <g id="line2d_47">
      <g>
       <use style="stroke:#000000;stroke-width:0.5;" x="445.49375" xlink:href="#mc21db286a6" y="359.1"/>
      </g>
     </g>
     <g id="line2d_48">
      <g>
       <use style="stroke:#000000;stroke-width:0.5;" x="445.49375" xlink:href="#ma9c915e141" y="13.5"/>
      </g>
     </g>
    </g>
    <g id="xtick_20">
     <g id="line2d_49">
      <g>
       <use style="stroke:#000000;stroke-width:0.5;" x="495.09375" xlink:href="#mc21db286a6" y="359.1"/>
      </g>
     </g>
     <g id="line2d_50">
      <g>
       <use style="stroke:#000000;stroke-width:0.5;" x="495.09375" xlink:href="#ma9c915e141" y="13.5"/>
      </g>
     </g>
    </g>
    <g id="text_11">
     <!-- Operational intensity (flops/byte) -->
     <defs>
      <path d="
M25.3906 72.9062
L33.6875 72.9062
L8.29688 -9.28125
L0 -9.28125
z
" id="BitstreamVeraSans-Roman-2f"/>
      <path d="
M34.2812 27.4844
Q23.3906 27.4844 19.1875 25
Q14.9844 22.5156 14.9844 16.5
Q14.9844 11.7188 18.1406 8.90625
Q21.2969 6.10938 26.7031 6.10938
Q34.1875 6.10938 38.7031 11.4062
Q43.2188 16.7031 43.2188 25.4844
L43.2188 27.4844
z

M52.2031 31.2031
L52.2031 0
L43.2188 0
L43.2188 8.29688
Q40.1406 3.32812 35.5469 0.953125
Q30.9531 -1.42188 24.3125 -1.42188
Q15.9219 -1.42188 10.9531 3.29688
Q6 8.01562 6 15.9219
Q6 25.1406 12.1719 29.8281
Q18.3594 34.5156 30.6094 34.5156
L43.2188 34.5156
L43.2188 35.4062
Q43.2188 41.6094 39.1406 45
Q35.0625 48.3906 27.6875 48.3906
Q23 48.3906 18.5469 47.2656
Q14.1094 46.1406 10.0156 43.8906
L10.0156 52.2031
Q14.9375 54.1094 19.5781 55.0469
Q24.2188 56 28.6094 56
Q40.4844 56 46.3438 49.8438
Q52.2031 43.7031 52.2031 31.2031" id="BitstreamVeraSans-Roman-61"/>
      <path d="
M18.3125 70.2188
L18.3125 54.6875
L36.8125 54.6875
L36.8125 47.7031
L18.3125 47.7031
L18.3125 18.0156
Q18.3125 11.3281 20.1406 9.42188
Q21.9688 7.51562 27.5938 7.51562
L36.8125 7.51562
L36.8125 0
L27.5938 0
Q17.1875 0 13.2344 3.875
Q9.28125 7.76562 9.28125 18.0156
L9.28125 47.7031
L2.6875 47.7031
L2.6875 54.6875
L9.28125 54.6875
L9.28125 70.2188
z
" id="BitstreamVeraSans-Roman-74"/>
      <path d="
M8.01562 75.875
L15.8281 75.875
Q23.1406 64.3594 26.7812 53.3125
Q30.4219 42.2812 30.4219 31.3906
Q30.4219 20.4531 26.7812 9.375
Q23.1406 -1.70312 15.8281 -13.1875
L8.01562 -13.1875
Q14.5 -2 17.7031 9.0625
Q20.9062 20.125 20.9062 31.3906
Q20.9062 42.6719 17.7031 53.6562
Q14.5 64.6562 8.01562 75.875" id="BitstreamVeraSans-Roman-29"/>
      <path d="
M31 75.875
Q24.4688 64.6562 21.2812 53.6562
Q18.1094 42.6719 18.1094 31.3906
Q18.1094 20.125 21.3125 9.0625
Q24.5156 -2 31 -13.1875
L23.1875 -13.1875
Q15.875 -1.70312 12.2344 9.375
Q8.59375 20.4531 8.59375 31.3906
Q8.59375 42.2812 12.2031 53.3125
Q15.8281 64.3594 23.1875 75.875
z
" id="BitstreamVeraSans-Roman-28"/>
      <path d="
M41.1094 46.2969
Q39.5938 47.1719 37.8125 47.5781
Q36.0312 48 33.8906 48
Q26.2656 48 22.1875 43.0469
Q18.1094 38.0938 18.1094 28.8125
L18.1094 0
L9.07812 0
L9.07812 54.6875
L18.1094 54.6875
L18.1094 46.1875
Q20.9531 51.1719 25.4844 53.5781
Q30.0312 56 36.5312 56
Q37.4531 56 38.5781 55.875
Q39.7031 55.7656 41.0625 55.5156
z
" id="BitstreamVeraSans-Roman-72"/>
      <path d="
M37.1094 75.9844
L37.1094 68.5
L28.5156 68.5
Q23.6875 68.5 21.7969 66.5469
Q19.9219 64.5938 19.9219 59.5156
L19.9219 54.6875
L34.7188 54.6875
L34.7188 47.7031
L19.9219 47.7031
L19.9219 0
L10.8906 0
L10.8906 47.7031
L2.29688 47.7031
L2.29688 54.6875
L10.8906 54.6875
L10.8906 58.5
Q10.8906 67.625 15.1406 71.7969
Q19.3906 75.9844 28.6094 75.9844
z
" id="BitstreamVeraSans-Roman-66"/>
      <path d="
M48.6875 27.2969
Q48.6875 37.2031 44.6094 42.8438
Q40.5312 48.4844 33.4062 48.4844
Q26.2656 48.4844 22.1875 42.8438
Q18.1094 37.2031 18.1094 27.2969
Q18.1094 17.3906 22.1875 11.75
Q26.2656 6.10938 33.4062 6.10938
Q40.5312 6.10938 44.6094 11.75
Q48.6875 17.3906 48.6875 27.2969
M18.1094 46.3906
Q20.9531 51.2656 25.2656 53.625
Q29.5938 56 35.5938 56
Q45.5625 56 51.7812 48.0938
Q58.0156 40.1875 58.0156 27.2969
Q58.0156 14.4062 51.7812 6.48438
Q45.5625 -1.42188 35.5938 -1.42188
Q29.5938 -1.42188 25.2656 0.953125
Q20.9531 3.32812 18.1094 8.20312
L18.1094 0
L9.07812 0
L9.07812 75.9844
L18.1094 75.9844
z
" id="BitstreamVeraSans-Roman-62"/>
      <path d="
M9.42188 75.9844
L18.4062 75.9844
L18.4062 0
L9.42188 0
z
" id="BitstreamVeraSans-Roman-6c"/>
      <path d="
M44.2812 53.0781
L44.2812 44.5781
Q40.4844 46.5312 36.375 47.5
Q32.2812 48.4844 27.875 48.4844
Q21.1875 48.4844 17.8438 46.4375
Q14.5 44.3906 14.5 40.2812
Q14.5 37.1562 16.8906 35.375
Q19.2812 33.5938 26.5156 31.9844
L29.5938 31.2969
Q39.1562 29.25 43.1875 25.5156
Q47.2188 21.7812 47.2188 15.0938
Q47.2188 7.46875 41.1875 3.01562
Q35.1562 -1.42188 24.6094 -1.42188
Q20.2188 -1.42188 15.4531 -0.5625
Q10.6875 0.296875 5.42188 2
L5.42188 11.2812
Q10.4062 8.6875 15.2344 7.39062
Q20.0625 6.10938 24.8125 6.10938
Q31.1562 6.10938 34.5625 8.28125
Q37.9844 10.4531 37.9844 14.4062
Q37.9844 18.0625 35.5156 20.0156
Q33.0625 21.9688 24.7031 23.7812
L21.5781 24.5156
Q13.2344 26.2656 9.51562 29.9062
Q5.8125 33.5469 5.8125 39.8906
Q5.8125 47.6094 11.2812 51.7969
Q16.75 56 26.8125 56
Q31.7812 56 36.1719 55.2656
Q40.5781 54.5469 44.2812 53.0781" id="BitstreamVeraSans-Roman-73"/>
      <path d="
M39.4062 66.2188
Q28.6562 66.2188 22.3281 58.2031
Q16.0156 50.2031 16.0156 36.375
Q16.0156 22.6094 22.3281 14.5938
Q28.6562 6.59375 39.4062 6.59375
Q50.1406 6.59375 56.4219 14.5938
Q62.7031 22.6094 62.7031 36.375
Q62.7031 50.2031 56.4219 58.2031
Q50.1406 66.2188 39.4062 66.2188
M39.4062 74.2188
Q54.7344 74.2188 63.9062 63.9375
Q73.0938 53.6562 73.0938 36.375
Q73.0938 19.1406 63.9062 8.85938
Q54.7344 -1.42188 39.4062 -1.42188
Q24.0312 -1.42188 14.8125 8.82812
Q5.60938 19.0938 5.60938 36.375
Q5.60938 53.6562 14.8125 63.9375
Q24.0312 74.2188 39.4062 74.2188" id="BitstreamVeraSans-Roman-4f"/>
      <path d="
M18.1094 8.20312
L18.1094 -20.7969
L9.07812 -20.7969
L9.07812 54.6875
L18.1094 54.6875
L18.1094 46.3906
Q20.9531 51.2656 25.2656 53.625
Q29.5938 56 35.5938 56
Q45.5625 56 51.7812 48.0938
Q58.0156 40.1875 58.0156 27.2969
Q58.0156 14.4062 51.7812 6.48438
Q45.5625 -1.42188 35.5938 -1.42188
Q29.5938 -1.42188 25.2656 0.953125
Q20.9531 3.32812 18.1094 8.20312
M48.6875 27.2969
Q48.6875 37.2031 44.6094 42.8438
Q40.5312 48.4844 33.4062 48.4844
Q26.2656 48.4844 22.1875 42.8438
Q18.1094 37.2031 18.1094 27.2969
Q18.1094 17.3906 22.1875 11.75
Q26.2656 6.10938 33.4062 6.10938
Q40.5312 6.10938 44.6094 11.75
Q48.6875 17.3906 48.6875 27.2969" id="BitstreamVeraSans-Roman-70"/>
      <path d="
M32.1719 -5.07812
Q28.375 -14.8438 24.75 -17.8125
Q21.1406 -20.7969 15.0938 -20.7969
L7.90625 -20.7969
L7.90625 -13.2812
L13.1875 -13.2812
Q16.8906 -13.2812 18.9375 -11.5156
Q21 -9.76562 23.4844 -3.21875
L25.0938 0.875
L2.98438 54.6875
L12.5 54.6875
L29.5938 11.9219
L46.6875 54.6875
L56.2031 54.6875
z
" id="BitstreamVeraSans-Roman-79"/>
      <path d="
M56.2031 29.5938
L56.2031 25.2031
L14.8906 25.2031
Q15.4844 15.9219 20.4844 11.0625
Q25.4844 6.20312 34.4219 6.20312
Q39.5938 6.20312 44.4531 7.46875
Q49.3125 8.73438 54.1094 11.2812
L54.1094 2.78125
Q49.2656 0.734375 44.1875 -0.34375
Q39.1094 -1.42188 33.8906 -1.42188
Q20.7969 -1.42188 13.1562 6.1875
Q5.51562 13.8125 5.51562 26.8125
Q5.51562 40.2344 12.7656 48.1094
Q20.0156 56 32.3281 56
Q43.3594 56 49.7812 48.8906
Q56.2031 41.7969 56.2031 29.5938
M47.2188 32.2344
Q47.125 39.5938 43.0938 43.9844
Q39.0625 48.3906 32.4219 48.3906
Q24.9062 48.3906 20.3906 44.1406
Q15.875 39.8906 15.1875 32.1719
z
" id="BitstreamVeraSans-Roman-65"/>
      <path d="
M9.42188 54.6875
L18.4062 54.6875
L18.4062 0
L9.42188 0
z

M9.42188 75.9844
L18.4062 75.9844
L18.4062 64.5938
L9.42188 64.5938
z
" id="BitstreamVeraSans-Roman-69"/>
      <path d="
M54.8906 33.0156
L54.8906 0
L45.9062 0
L45.9062 32.7188
Q45.9062 40.4844 42.875 44.3281
Q39.8438 48.1875 33.7969 48.1875
Q26.5156 48.1875 22.3125 43.5469
Q18.1094 38.9219 18.1094 30.9062
L18.1094 0
L9.07812 0
L9.07812 54.6875
L18.1094 54.6875
L18.1094 46.1875
Q21.3438 51.125 25.7031 53.5625
Q30.0781 56 35.7969 56
Q45.2188 56 50.0469 50.1719
Q54.8906 44.3438 54.8906 33.0156" id="BitstreamVeraSans-Roman-6e"/>
      <path id="BitstreamVeraSans-Roman-20"/>
      <path d="
M30.6094 48.3906
Q23.3906 48.3906 19.1875 42.75
Q14.9844 37.1094 14.9844 27.2969
Q14.9844 17.4844 19.1562 11.8438
Q23.3438 6.20312 30.6094 6.20312
Q37.7969 6.20312 41.9844 11.8594
Q46.1875 17.5312 46.1875 27.2969
Q46.1875 37.0156 41.9844 42.7031
Q37.7969 48.3906 30.6094 48.3906
M30.6094 56
Q42.3281 56 49.0156 48.375
Q55.7188 40.7656 55.7188 27.2969
Q55.7188 13.875 49.0156 6.21875
Q42.3281 -1.42188 30.6094 -1.42188
Q18.8438 -1.42188 12.1719 6.21875
Q5.51562 13.875 5.51562 27.2969
Q5.51562 40.7656 12.1719 48.375
Q18.8438 56 30.6094 56" id="BitstreamVeraSans-Roman-6f"/>
     </defs>
     <g transform="translate(172.8871875 389.818125)scale(0.12 -0.12)">
      <use xlink:href="#BitstreamVeraSans-Roman-4f"/>
      <use x="78.7109375" xlink:href="#BitstreamVeraSans-Roman-70"/>
      <use x="142.1875" xlink:href="#BitstreamVeraSans-Roman-65"/>
      <use x="203.7109375" xlink:href="#BitstreamVeraSans-Roman-72"/>
      <use x="244.82421875" xlink:href="#BitstreamVeraSans-Roman-61"/>
      <use x="306.103515625" xlink:href="#BitstreamVeraSans-Roman-74"/>
      <use x="345.3125" xlink:href="#BitstreamVeraSans-Roman-69"/>
      <use x="373.095703125" xlink:href="#BitstreamVeraSans-Roman-6f"/>
      <use x="434.27734375" xlink:href="#BitstreamVeraSans-Roman-6e"/>
      <use x="497.65625" xlink:href="#BitstreamVeraSans-Roman-61"/>
      <use x="558.935546875" xlink:href="#BitstreamVeraSans-Roman-6c"/>
      <use x="586.71875" xlink:href="#BitstreamVeraSans-Roman-20"/>
      <use x="618.505859375" xlink:href="#BitstreamVeraSans-Roman-69"/>
      <use x="646.2890625" xlink:href="#BitstreamVeraSans-Roman-6e"/>
      <use x="709.66796875" xlink:href="#BitstreamVeraSans-Roman-74"/>
      <use x="748.876953125" xlink:href="#BitstreamVeraSans-Roman-65"/>
      <use x="810.400390625" xlink:href="#BitstreamVeraSans-Roman-6e"/>
      <use x="873.779296875" xlink:href="#BitstreamVeraSans-Roman-73"/>
      <use x="925.87890625" xlink:href="#BitstreamVeraSans-Roman-69"/>
      <use x="953.662109375" xlink:href="#BitstreamVeraSans-Roman-74"/>
      <use x="992.87109375" xlink:href="#BitstreamVeraSans-Roman-79"/>
      <use x="1052.05078125" xlink:href="#BitstreamVeraSans-Roman-20"/>
      <use x="1083.837890625" xlink:href="#BitstreamVeraSans-Roman-28"/>
      <use x="1122.8515625" xlink:href="#BitstreamVeraSans-Roman-66"/>
      <use x="1158.056640625" xlink:href="#BitstreamVeraSans-Roman-6c"/>
      <use x="1185.83984375" xlink:href="#BitstreamVeraSans-Roman-6f"/>
      <use x="1247.021484375" xlink:href="#BitstreamVeraSans-Roman-70"/>
      <use x="1310.498046875" xlink:href="#BitstreamVeraSans-Roman-73"/>
      <use x="1362.59765625" xlink:href="#BitstreamVeraSans-Roman-2f"/>
      <use x="1396.2890625" xlink:href="#BitstreamVeraSans-Roman-62"/>
      <use x="1459.765625" xlink:href="#BitstreamVeraSans-Roman-79"/>
      <use x="1518.9453125" xlink:href="#BitstreamVeraSans-Roman-74"/>
      <use x="1558.154296875" xlink:href="#BitstreamVeraSans-Roman-65"/>
      <use x="1619.677734375" xlink:href="#BitstreamVeraSans-Roman-29"/>
     </g>
    </g>
   </g>
   <g id="matplotlib.axis_2">
    <g id="ytick_1">
     <g id="line2d_51">
      <defs>
       <path d="
M0 0
L4 0" id="md7965d1ba0" style="stroke:#000000;stroke-width:0.5;"/>
      </defs>
      <g>
       <use style="stroke:#000000;stroke-width:0.5;" x="48.69375" xlink:href="#md7965d1ba0" y="359.1"/>
      </g>
     </g>
     <g id="line2d_52">
      <defs>
       <path d="
M0 0
L-4 0" id="md9a1c1a7cd" style="stroke:#000000;stroke-width:0.5;"/>
      </defs>
      <g>
       <use style="stroke:#000000;stroke-width:0.5;" x="495.09375" xlink:href="#md9a1c1a7cd" y="359.1"/>
      </g>
     </g>
     <g id="text_12">
      <!-- $\mathdefault{2^{0}}$ -->
      <g transform="translate(29.09375 362.904375)scale(0.12 -0.12)">
       <use transform="translate(0.0 0.546875)" xlink:href="#BitstreamVeraSans-Roman-32"/>
       <use transform="translate(63.623046875 53.046875)scale(0.7)" xlink:href="#BitstreamVeraSans-Roman-30"/>
      </g>
     </g>
    </g>
    <g id="ytick_2">
     <g id="line2d_53">
      <g>
       <use style="stroke:#000000;stroke-width:0.5;" x="48.69375" xlink:href="#md7965d1ba0" y="324.54"/>
      </g>
     </g>
     <g id="line2d_54">
      <g>
       <use style="stroke:#000000;stroke-width:0.5;" x="495.09375" xlink:href="#md9a1c1a7cd" y="324.54"/>
      </g>
     </g>
     <g id="text_13">
      <!-- $\mathdefault{2^{1}}$ -->
      <g transform="translate(29.09375 328.284375)scale(0.12 -0.12)">
       <use transform="translate(0.0 0.46562500000000284)" xlink:href="#BitstreamVeraSans-Roman-32"/>
       <use transform="translate(63.623046875 52.965625)scale(0.7)" xlink:href="#BitstreamVeraSans-Roman-31"/>
      </g>
     </g>
    </g>
    <g id="ytick_3">
     <g id="line2d_55">
      <g>
       <use style="stroke:#000000;stroke-width:0.5;" x="48.69375" xlink:href="#md7965d1ba0" y="289.98"/>
      </g>
     </g>
     <g id="line2d_56">
      <g>
       <use style="stroke:#000000;stroke-width:0.5;" x="495.09375" xlink:href="#md9a1c1a7cd" y="289.98"/>
      </g>
     </g>
     <g id="text_14">
      <!-- $\mathdefault{2^{2}}$ -->
      <g transform="translate(29.09375 293.784375)scale(0.12 -0.12)">
       <use transform="translate(0.0 0.546875)" xlink:href="#BitstreamVeraSans-Roman-32"/>
       <use transform="translate(63.623046875 53.046875)scale(0.7)" xlink:href="#BitstreamVeraSans-Roman-32"/>
      </g>
     </g>
    </g>
    <g id="ytick_4">
     <g id="line2d_57">
      <g>
       <use style="stroke:#000000;stroke-width:0.5;" x="48.69375" xlink:href="#md7965d1ba0" y="255.42"/>
      </g>
     </g>
     <g id="line2d_58">
      <g>
       <use style="stroke:#000000;stroke-width:0.5;" x="495.09375" xlink:href="#md9a1c1a7cd" y="255.42"/>
      </g>
     </g>
     <g id="text_15">
      <!-- $\mathdefault{2^{3}}$ -->
      <g transform="translate(29.09375 259.224375)scale(0.12 -0.12)">
       <use transform="translate(0.0 0.546875)" xlink:href="#BitstreamVeraSans-Roman-32"/>
       <use transform="translate(63.623046875 53.046875)scale(0.7)" xlink:href="#BitstreamVeraSans-Roman-33"/>
      </g>
     </g>
    </g>
    <g id="ytick_5">
     <g id="line2d_59">
      <g>
       <use style="stroke:#000000;stroke-width:0.5;" x="48.69375" xlink:href="#md7965d1ba0" y="220.86"/>
      </g>
     </g>
     <g id="line2d_60">
      <g>
       <use style="stroke:#000000;stroke-width:0.5;" x="495.09375" xlink:href="#md9a1c1a7cd" y="220.86"/>
      </g>
     </g>
     <g id="text_16">
      <!-- $\mathdefault{2^{4}}$ -->
      <g transform="translate(29.09375 224.604375)scale(0.12 -0.12)">
       <use transform="translate(0.0 0.46562500000000284)" xlink:href="#BitstreamVeraSans-Roman-32"/>
       <use transform="translate(63.623046875 52.965625)scale(0.7)" xlink:href="#BitstreamVeraSans-Roman-34"/>
      </g>
     </g>
    </g>
    <g id="ytick_6">
     <g id="line2d_61">
      <g>
       <use style="stroke:#000000;stroke-width:0.5;" x="48.69375" xlink:href="#md7965d1ba0" y="186.3"/>
      </g>
     </g>
     <g id="line2d_62">
      <g>
       <use style="stroke:#000000;stroke-width:0.5;" x="495.09375" xlink:href="#md9a1c1a7cd" y="186.3"/>
      </g>
     </g>
     <g id="text_17">
      <!-- $\mathdefault{2^{5}}$ -->
      <g transform="translate(29.09375 190.044375)scale(0.12 -0.12)">
       <use transform="translate(0.0 0.46562500000000284)" xlink:href="#BitstreamVeraSans-Roman-32"/>
       <use transform="translate(63.623046875 52.965625)scale(0.7)" xlink:href="#BitstreamVeraSans-Roman-35"/>
      </g>
     </g>
    </g>
    <g id="ytick_7">
     <g id="line2d_63">
      <g>
       <use style="stroke:#000000;stroke-width:0.5;" x="48.69375" xlink:href="#md7965d1ba0" y="151.74"/>
      </g>
     </g>
     <g id="line2d_64">
      <g>
       <use style="stroke:#000000;stroke-width:0.5;" x="495.09375" xlink:href="#md9a1c1a7cd" y="151.74"/>
      </g>
     </g>
     <g id="text_18">
      <!-- $\mathdefault{2^{6}}$ -->
      <defs>
       <path d="
M33.0156 40.375
Q26.375 40.375 22.4844 35.8281
Q18.6094 31.2969 18.6094 23.3906
Q18.6094 15.5312 22.4844 10.9531
Q26.375 6.39062 33.0156 6.39062
Q39.6562 6.39062 43.5312 10.9531
Q47.4062 15.5312 47.4062 23.3906
Q47.4062 31.2969 43.5312 35.8281
Q39.6562 40.375 33.0156 40.375
M52.5938 71.2969
L52.5938 62.3125
Q48.875 64.0625 45.0938 64.9844
Q41.3125 65.9219 37.5938 65.9219
Q27.8281 65.9219 22.6719 59.3281
Q17.5312 52.7344 16.7969 39.4062
Q19.6719 43.6562 24.0156 45.9219
Q28.375 48.1875 33.5938 48.1875
Q44.5781 48.1875 50.9531 41.5156
Q57.3281 34.8594 57.3281 23.3906
Q57.3281 12.1562 50.6875 5.35938
Q44.0469 -1.42188 33.0156 -1.42188
Q20.3594 -1.42188 13.6719 8.26562
Q6.98438 17.9688 6.98438 36.375
Q6.98438 53.6562 15.1875 63.9375
Q23.3906 74.2188 37.2031 74.2188
Q40.9219 74.2188 44.7031 73.4844
Q48.4844 72.75 52.5938 71.2969" id="BitstreamVeraSans-Roman-36"/>
      </defs>
      <g transform="translate(29.09375 155.544375)scale(0.12 -0.12)">
       <use transform="translate(0.0 0.546875)" xlink:href="#BitstreamVeraSans-Roman-32"/>
       <use transform="translate(63.623046875 53.046875)scale(0.7)" xlink:href="#BitstreamVeraSans-Roman-36"/>
      </g>
     </g>
    </g>
    <g id="ytick_8">
     <g id="line2d_65">
      <g>
       <use style="stroke:#000000;stroke-width:0.5;" x="48.69375" xlink:href="#md7965d1ba0" y="117.18"/>
      </g>
     </g>
     <g id="line2d_66">
      <g>
       <use style="stroke:#000000;stroke-width:0.5;" x="495.09375" xlink:href="#md9a1c1a7cd" y="117.18"/>
      </g>
     </g>
     <g id="text_19">
      <!-- $\mathdefault{2^{7}}$ -->
      <defs>
       <path d="
M8.20312 72.9062
L55.0781 72.9062
L55.0781 68.7031
L28.6094 0
L18.3125 0
L43.2188 64.5938
L8.20312 64.5938
z
" id="BitstreamVeraSans-Roman-37"/>
      </defs>
      <g transform="translate(29.09375 120.924375)scale(0.12 -0.12)">
       <use transform="translate(0.0 0.46562500000000284)" xlink:href="#BitstreamVeraSans-Roman-32"/>
       <use transform="translate(63.623046875 52.965625)scale(0.7)" xlink:href="#BitstreamVeraSans-Roman-37"/>
      </g>
     </g>
    </g>
    <g id="ytick_9">
     <g id="line2d_67">
      <g>
       <use style="stroke:#000000;stroke-width:0.5;" x="48.69375" xlink:href="#md7965d1ba0" y="82.62"/>
      </g>
     </g>
     <g id="line2d_68">
      <g>
       <use style="stroke:#000000;stroke-width:0.5;" x="495.09375" xlink:href="#md9a1c1a7cd" y="82.62"/>
      </g>
     </g>
     <g id="text_20">
      <!-- $\mathdefault{2^{8}}$ -->
      <defs>
       <path d="
M31.7812 34.625
Q24.75 34.625 20.7188 30.8594
Q16.7031 27.0938 16.7031 20.5156
Q16.7031 13.9219 20.7188 10.1562
Q24.75 6.39062 31.7812 6.39062
Q38.8125 6.39062 42.8594 10.1719
Q46.9219 13.9688 46.9219 20.5156
Q46.9219 27.0938 42.8906 30.8594
Q38.875 34.625 31.7812 34.625
M21.9219 38.8125
Q15.5781 40.375 12.0312 44.7188
Q8.5 49.0781 8.5 55.3281
Q8.5 64.0625 14.7188 69.1406
Q20.9531 74.2188 31.7812 74.2188
Q42.6719 74.2188 48.875 69.1406
Q55.0781 64.0625 55.0781 55.3281
Q55.0781 49.0781 51.5312 44.7188
Q48 40.375 41.7031 38.8125
Q48.8281 37.1562 52.7969 32.3125
Q56.7812 27.4844 56.7812 20.5156
Q56.7812 9.90625 50.3125 4.23438
Q43.8438 -1.42188 31.7812 -1.42188
Q19.7344 -1.42188 13.25 4.23438
Q6.78125 9.90625 6.78125 20.5156
Q6.78125 27.4844 10.7812 32.3125
Q14.7969 37.1562 21.9219 38.8125
M18.3125 54.3906
Q18.3125 48.7344 21.8438 45.5625
Q25.3906 42.3906 31.7812 42.3906
Q38.1406 42.3906 41.7188 45.5625
Q45.3125 48.7344 45.3125 54.3906
Q45.3125 60.0625 41.7188 63.2344
Q38.1406 66.4062 31.7812 66.4062
Q25.3906 66.4062 21.8438 63.2344
Q18.3125 60.0625 18.3125 54.3906" id="BitstreamVeraSans-Roman-38"/>
      </defs>
      <g transform="translate(29.09375 86.424375)scale(0.12 -0.12)">
       <use transform="translate(0.0 0.546875)" xlink:href="#BitstreamVeraSans-Roman-32"/>
       <use transform="translate(63.623046875 53.046875)scale(0.7)" xlink:href="#BitstreamVeraSans-Roman-38"/>
      </g>
     </g>
    </g>
    <g id="ytick_10">
     <g id="line2d_69">
      <g>
       <use style="stroke:#000000;stroke-width:0.5;" x="48.69375" xlink:href="#md7965d1ba0" y="48.06"/>
      </g>
     </g>
     <g id="line2d_70">
      <g>
       <use style="stroke:#000000;stroke-width:0.5;" x="495.09375" xlink:href="#md9a1c1a7cd" y="48.06"/>
      </g>
     </g>
     <g id="text_21">
      <!-- $\mathdefault{2^{9}}$ -->
      <defs>
       <path d="
M10.9844 1.51562
L10.9844 10.5
Q14.7031 8.73438 18.5 7.8125
Q22.3125 6.89062 25.9844 6.89062
Q35.75 6.89062 40.8906 13.4531
Q46.0469 20.0156 46.7812 33.4062
Q43.9531 29.2031 39.5938 26.9531
Q35.25 24.7031 29.9844 24.7031
Q19.0469 24.7031 12.6719 31.3125
Q6.29688 37.9375 6.29688 49.4219
Q6.29688 60.6406 12.9375 67.4219
Q19.5781 74.2188 30.6094 74.2188
Q43.2656 74.2188 49.9219 64.5156
Q56.5938 54.8281 56.5938 36.375
Q56.5938 19.1406 48.4062 8.85938
Q40.2344 -1.42188 26.4219 -1.42188
Q22.7031 -1.42188 18.8906 -0.6875
Q15.0938 0.046875 10.9844 1.51562
M30.6094 32.4219
Q37.25 32.4219 41.125 36.9531
Q45.0156 41.5 45.0156 49.4219
Q45.0156 57.2812 41.125 61.8438
Q37.25 66.4062 30.6094 66.4062
Q23.9688 66.4062 20.0938 61.8438
Q16.2188 57.2812 16.2188 49.4219
Q16.2188 41.5 20.0938 36.9531
Q23.9688 32.4219 30.6094 32.4219" id="BitstreamVeraSans-Roman-39"/>
      </defs>
      <g transform="translate(29.09375 51.864375)scale(0.12 -0.12)">
       <use transform="translate(0.0 0.546875)" xlink:href="#BitstreamVeraSans-Roman-32"/>
       <use transform="translate(63.623046875 53.046875)scale(0.7)" xlink:href="#BitstreamVeraSans-Roman-39"/>
      </g>
     </g>
    </g>
    <g id="ytick_11">
     <g id="line2d_71">
      <g>
       <use style="stroke:#000000;stroke-width:0.5;" x="48.69375" xlink:href="#md7965d1ba0" y="13.5"/>
      </g>
     </g>
     <g id="line2d_72">
      <g>
       <use style="stroke:#000000;stroke-width:0.5;" x="495.09375" xlink:href="#md9a1c1a7cd" y="13.5"/>
      </g>
     </g>
     <g id="text_22">
      <!-- $\mathdefault{2^{10}}$ -->
      <g transform="translate(23.81375 17.304375)scale(0.12 -0.12)">
       <use transform="translate(0.0 0.546875)" xlink:href="#BitstreamVeraSans-Roman-32"/>
       <use transform="translate(63.623046875 53.046875)scale(0.7)" xlink:href="#BitstreamVeraSans-Roman-31"/>
       <use transform="translate(108.1591796875 53.046875)scale(0.7)" xlink:href="#BitstreamVeraSans-Roman-30"/>
      </g>
     </g>
    </g>
    <g id="ytick_12">
     <g id="line2d_73">
      <defs>
       <path d="
M0 0
L2 0" id="m8d45281ad4" style="stroke:#000000;stroke-width:0.5;"/>
      </defs>
      <g>
       <use style="stroke:#000000;stroke-width:0.5;" x="48.69375" xlink:href="#m8d45281ad4" y="359.1"/>
      </g>
     </g>
     <g id="line2d_74">
      <defs>
       <path d="
M0 0
L-2 0" id="me3f9b4022a" style="stroke:#000000;stroke-width:0.5;"/>
      </defs>
      <g>
       <use style="stroke:#000000;stroke-width:0.5;" x="495.09375" xlink:href="#me3f9b4022a" y="359.1"/>
      </g>
     </g>
    </g>
    <g id="ytick_13">
     <g id="line2d_75">
      <g>
       <use style="stroke:#000000;stroke-width:0.5;" x="48.69375" xlink:href="#m8d45281ad4" y="324.54"/>
      </g>
     </g>
     <g id="line2d_76">
      <g>
       <use style="stroke:#000000;stroke-width:0.5;" x="495.09375" xlink:href="#me3f9b4022a" y="324.54"/>
      </g>
     </g>
    </g>
    <g id="ytick_14">
     <g id="line2d_77">
      <g>
       <use style="stroke:#000000;stroke-width:0.5;" x="48.69375" xlink:href="#m8d45281ad4" y="289.98"/>
      </g>
     </g>
     <g id="line2d_78">
      <g>
       <use style="stroke:#000000;stroke-width:0.5;" x="495.09375" xlink:href="#me3f9b4022a" y="289.98"/>
      </g>
     </g>
    </g>
    <g id="ytick_15">
     <g id="line2d_79">
      <g>
       <use style="stroke:#000000;stroke-width:0.5;" x="48.69375" xlink:href="#m8d45281ad4" y="255.42"/>
      </g>
     </g>
     <g id="line2d_80">
      <g>
       <use style="stroke:#000000;stroke-width:0.5;" x="495.09375" xlink:href="#me3f9b4022a" y="255.42"/>
      </g>
     </g>
    </g>
    <g id="ytick_16">
     <g id="line2d_81">
      <g>
       <use style="stroke:#000000;stroke-width:0.5;" x="48.69375" xlink:href="#m8d45281ad4" y="220.86"/>
      </g>
     </g>
     <g id="line2d_82">
      <g>
       <use style="stroke:#000000;stroke-width:0.5;" x="495.09375" xlink:href="#me3f9b4022a" y="220.86"/>
      </g>
     </g>
    </g>
    <g id="ytick_17">
     <g id="line2d_83">
      <g>
       <use style="stroke:#000000;stroke-width:0.5;" x="48.69375" xlink:href="#m8d45281ad4" y="186.3"/>
      </g>
     </g>
     <g id="line2d_84">
      <g>
       <use style="stroke:#000000;stroke-width:0.5;" x="495.09375" xlink:href="#me3f9b4022a" y="186.3"/>
      </g>
     </g>
    </g>
    <g id="ytick_18">
     <g id="line2d_85">
      <g>
       <use style="stroke:#000000;stroke-width:0.5;" x="48.69375" xlink:href="#m8d45281ad4" y="151.74"/>
      </g>
     </g>
     <g id="line2d_86">
      <g>
       <use style="stroke:#000000;stroke-width:0.5;" x="495.09375" xlink:href="#me3f9b4022a" y="151.74"/>
      </g>
     </g>
    </g>
    <g id="ytick_19">
     <g id="line2d_87">
      <g>
       <use style="stroke:#000000;stroke-width:0.5;" x="48.69375" xlink:href="#m8d45281ad4" y="117.18"/>
      </g>
     </g>
     <g id="line2d_88">
      <g>
       <use style="stroke:#000000;stroke-width:0.5;" x="495.09375" xlink:href="#me3f9b4022a" y="117.18"/>
      </g>
     </g>
    </g>
    <g id="ytick_20">
     <g id="line2d_89">
      <g>
       <use style="stroke:#000000;stroke-width:0.5;" x="48.69375" xlink:href="#m8d45281ad4" y="82.62"/>
      </g>
     </g>
     <g id="line2d_90">
      <g>
       <use style="stroke:#000000;stroke-width:0.5;" x="495.09375" xlink:href="#me3f9b4022a" y="82.62"/>
      </g>
     </g>
    </g>
    <g id="ytick_21">
     <g id="line2d_91">
      <g>
       <use style="stroke:#000000;stroke-width:0.5;" x="48.69375" xlink:href="#m8d45281ad4" y="48.06"/>
      </g>
     </g>
     <g id="line2d_92">
      <g>
       <use style="stroke:#000000;stroke-width:0.5;" x="495.09375" xlink:href="#me3f9b4022a" y="48.06"/>
      </g>
     </g>
    </g>
    <g id="ytick_22">
     <g id="line2d_93">
      <g>
       <use style="stroke:#000000;stroke-width:0.5;" x="48.69375" xlink:href="#m8d45281ad4" y="13.5"/>
      </g>
     </g>
     <g id="line2d_94">
      <g>
       <use style="stroke:#000000;stroke-width:0.5;" x="495.09375" xlink:href="#me3f9b4022a" y="13.5"/>
      </g>
     </g>
    </g>
    <g id="text_23">
     <!-- Performance (Gflops/sec) -->
     <defs>
      <path d="
M52 44.1875
Q55.375 50.25 60.0625 53.125
Q64.75 56 71.0938 56
Q79.6406 56 84.2812 50.0156
Q88.9219 44.0469 88.9219 33.0156
L88.9219 0
L79.8906 0
L79.8906 32.7188
Q79.8906 40.5781 77.0938 44.375
Q74.3125 48.1875 68.6094 48.1875
Q61.625 48.1875 57.5625 43.5469
Q53.5156 38.9219 53.5156 30.9062
L53.5156 0
L44.4844 0
L44.4844 32.7188
Q44.4844 40.625 41.7031 44.4062
Q38.9219 48.1875 33.1094 48.1875
Q26.2188 48.1875 22.1562 43.5312
Q18.1094 38.875 18.1094 30.9062
L18.1094 0
L9.07812 0
L9.07812 54.6875
L18.1094 54.6875
L18.1094 46.1875
Q21.1875 51.2188 25.4844 53.6094
Q29.7812 56 35.6875 56
Q41.6562 56 45.8281 52.9688
Q50 49.9531 52 44.1875" id="BitstreamVeraSans-Roman-6d"/>
      <path d="
M19.6719 64.7969
L19.6719 37.4062
L32.0781 37.4062
Q38.9688 37.4062 42.7188 40.9688
Q46.4844 44.5312 46.4844 51.125
Q46.4844 57.6719 42.7188 61.2344
Q38.9688 64.7969 32.0781 64.7969
z

M9.8125 72.9062
L32.0781 72.9062
Q44.3438 72.9062 50.6094 67.3594
Q56.8906 61.8125 56.8906 51.125
Q56.8906 40.3281 50.6094 34.8125
Q44.3438 29.2969 32.0781 29.2969
L19.6719 29.2969
L19.6719 0
L9.8125 0
z
" id="BitstreamVeraSans-Roman-50"/>
      <path d="
M48.7812 52.5938
L48.7812 44.1875
Q44.9688 46.2969 41.1406 47.3438
Q37.3125 48.3906 33.4062 48.3906
Q24.6562 48.3906 19.8125 42.8438
Q14.9844 37.3125 14.9844 27.2969
Q14.9844 17.2812 19.8125 11.7344
Q24.6562 6.20312 33.4062 6.20312
Q37.3125 6.20312 41.1406 7.25
Q44.9688 8.29688 48.7812 10.4062
L48.7812 2.09375
Q45.0156 0.34375 40.9844 -0.53125
Q36.9688 -1.42188 32.4219 -1.42188
Q20.0625 -1.42188 12.7812 6.34375
Q5.51562 14.1094 5.51562 27.2969
Q5.51562 40.6719 12.8594 48.3281
Q20.2188 56 33.0156 56
Q37.1562 56 41.1094 55.1406
Q45.0625 54.2969 48.7812 52.5938" id="BitstreamVeraSans-Roman-63"/>
      <path d="
M59.5156 10.4062
L59.5156 29.9844
L43.4062 29.9844
L43.4062 38.0938
L69.2812 38.0938
L69.2812 6.78125
Q63.5781 2.73438 56.6875 0.65625
Q49.8125 -1.42188 42 -1.42188
Q24.9062 -1.42188 15.25 8.5625
Q5.60938 18.5625 5.60938 36.375
Q5.60938 54.25 15.25 64.2344
Q24.9062 74.2188 42 74.2188
Q49.125 74.2188 55.5469 72.4531
Q61.9688 70.7031 67.3906 67.2812
L67.3906 56.7812
Q61.9219 61.4219 55.7656 63.7656
Q49.6094 66.1094 42.8281 66.1094
Q29.4375 66.1094 22.7188 58.6406
Q16.0156 51.1719 16.0156 36.375
Q16.0156 21.625 22.7188 14.1562
Q29.4375 6.6875 42.8281 6.6875
Q48.0469 6.6875 52.1406 7.59375
Q56.25 8.5 59.5156 10.4062" id="BitstreamVeraSans-Roman-47"/>
     </defs>
     <g transform="translate(16.318125 261.5634375)rotate(-90.0)scale(0.12 -0.12)">
      <use xlink:href="#BitstreamVeraSans-Roman-50"/>
      <use x="56.677734375" xlink:href="#BitstreamVeraSans-Roman-65"/>
      <use x="118.201171875" xlink:href="#BitstreamVeraSans-Roman-72"/>
      <use x="159.314453125" xlink:href="#BitstreamVeraSans-Roman-66"/>
      <use x="194.51953125" xlink:href="#BitstreamVeraSans-Roman-6f"/>
      <use x="255.701171875" xlink:href="#BitstreamVeraSans-Roman-72"/>
      <use x="295.064453125" xlink:href="#BitstreamVeraSans-Roman-6d"/>
      <use x="392.4765625" xlink:href="#BitstreamVeraSans-Roman-61"/>
      <use x="453.755859375" xlink:href="#BitstreamVeraSans-Roman-6e"/>
      <use x="517.134765625" xlink:href="#BitstreamVeraSans-Roman-63"/>
      <use x="572.115234375" xlink:href="#BitstreamVeraSans-Roman-65"/>
      <use x="633.638671875" xlink:href="#BitstreamVeraSans-Roman-20"/>
      <use x="665.42578125" xlink:href="#BitstreamVeraSans-Roman-28"/>
      <use x="704.439453125" xlink:href="#BitstreamVeraSans-Roman-47"/>
      <use x="781.9296875" xlink:href="#BitstreamVeraSans-Roman-66"/>
      <use x="817.134765625" xlink:href="#BitstreamVeraSans-Roman-6c"/>
      <use x="844.91796875" xlink:href="#BitstreamVeraSans-Roman-6f"/>
      <use x="906.099609375" xlink:href="#BitstreamVeraSans-Roman-70"/>
      <use x="969.576171875" xlink:href="#BitstreamVeraSans-Roman-73"/>
      <use x="1021.67578125" xlink:href="#BitstreamVeraSans-Roman-2f"/>
      <use x="1055.3671875" xlink:href="#BitstreamVeraSans-Roman-73"/>
      <use x="1107.466796875" xlink:href="#BitstreamVeraSans-Roman-65"/>
      <use x="1168.990234375" xlink:href="#BitstreamVeraSans-Roman-63"/>
      <use x="1223.970703125" xlink:href="#BitstreamVeraSans-Roman-29"/>
     </g>
    </g>
   </g>
   <g id="legend_1">
    <g id="patch_7">
     <path d="
M517.414 81.2295
L737.171 81.2295
L737.171 13.5
L517.414 13.5
z
" style="fill:#ffffff;stroke:#000000;stroke-linejoin:miter;"/>
    </g>
    <g id="line2d_95">
     <path d="
M527.494 25.1618
L547.654 25.1618" style="fill:none;stroke:#000000;stroke-linecap:square;stroke-width:2.0;"/>
    </g>
    <g id="line2d_96"/>
    <g id="text_24">
     <!-- Peak DP performance -->
     <defs>
      <path d="
M9.07812 75.9844
L18.1094 75.9844
L18.1094 31.1094
L44.9219 54.6875
L56.3906 54.6875
L27.3906 29.1094
L57.625 0
L45.9062 0
L18.1094 26.7031
L18.1094 0
L9.07812 0
z
" id="BitstreamVeraSans-Roman-6b"/>
      <path d="
M19.6719 64.7969
L19.6719 8.10938
L31.5938 8.10938
Q46.6875 8.10938 53.6875 14.9375
Q60.6875 21.7812 60.6875 36.5312
Q60.6875 51.1719 53.6875 57.9844
Q46.6875 64.7969 31.5938 64.7969
z

M9.8125 72.9062
L30.0781 72.9062
Q51.2656 72.9062 61.1719 64.0938
Q71.0938 55.2812 71.0938 36.5312
Q71.0938 17.6719 61.125 8.82812
Q51.1719 0 30.0781 0
L9.8125 0
z
" id="BitstreamVeraSans-Roman-44"/>
     </defs>
     <g transform="translate(563.49375 30.20175)scale(0.144 -0.144)">
      <use xlink:href="#BitstreamVeraSans-Roman-50"/>
      <use x="56.677734375" xlink:href="#BitstreamVeraSans-Roman-65"/>
      <use x="118.201171875" xlink:href="#BitstreamVeraSans-Roman-61"/>
      <use x="179.48046875" xlink:href="#BitstreamVeraSans-Roman-6b"/>
      <use x="237.390625" xlink:href="#BitstreamVeraSans-Roman-20"/>
      <use x="269.177734375" xlink:href="#BitstreamVeraSans-Roman-44"/>
      <use x="346.1796875" xlink:href="#BitstreamVeraSans-Roman-50"/>
      <use x="406.482421875" xlink:href="#BitstreamVeraSans-Roman-20"/>
      <use x="438.26953125" xlink:href="#BitstreamVeraSans-Roman-70"/>
      <use x="501.74609375" xlink:href="#BitstreamVeraSans-Roman-65"/>
      <use x="563.26953125" xlink:href="#BitstreamVeraSans-Roman-72"/>
      <use x="604.3828125" xlink:href="#BitstreamVeraSans-Roman-66"/>
      <use x="639.587890625" xlink:href="#BitstreamVeraSans-Roman-6f"/>
      <use x="700.76953125" xlink:href="#BitstreamVeraSans-Roman-72"/>
      <use x="740.1328125" xlink:href="#BitstreamVeraSans-Roman-6d"/>
      <use x="837.544921875" xlink:href="#BitstreamVeraSans-Roman-61"/>
      <use x="898.82421875" xlink:href="#BitstreamVeraSans-Roman-6e"/>
      <use x="962.203125" xlink:href="#BitstreamVeraSans-Roman-63"/>
      <use x="1017.18359375" xlink:href="#BitstreamVeraSans-Roman-65"/>
     </g>
    </g>
    <g id="line2d_97">
     <path d="
M527.494 46.2983
L547.654 46.2983" style="fill:none;stroke:#ff0000;stroke-linecap:square;stroke-width:2.0;"/>
    </g>
    <g id="line2d_98"/>
    <g id="text_25">
     <!-- Single-core peak -->
     <defs>
      <path d="
M53.5156 70.5156
L53.5156 60.8906
Q47.9062 63.5781 42.9219 64.8906
Q37.9375 66.2188 33.2969 66.2188
Q25.25 66.2188 20.875 63.0938
Q16.5 59.9688 16.5 54.2031
Q16.5 49.3594 19.4062 46.8906
Q22.3125 44.4375 30.4219 42.9219
L36.375 41.7031
Q47.4062 39.5938 52.6562 34.2969
Q57.9062 29 57.9062 20.125
Q57.9062 9.51562 50.7969 4.04688
Q43.7031 -1.42188 29.9844 -1.42188
Q24.8125 -1.42188 18.9688 -0.25
Q13.1406 0.921875 6.89062 3.21875
L6.89062 13.375
Q12.8906 10.0156 18.6562 8.29688
Q24.4219 6.59375 29.9844 6.59375
Q38.4219 6.59375 43.0156 9.90625
Q47.6094 13.2344 47.6094 19.3906
Q47.6094 24.75 44.3125 27.7812
Q41.0156 30.8125 33.5 32.3281
L27.4844 33.5
Q16.4531 35.6875 11.5156 40.375
Q6.59375 45.0625 6.59375 53.4219
Q6.59375 63.0938 13.4062 68.6562
Q20.2188 74.2188 32.1719 74.2188
Q37.3125 74.2188 42.625 73.2812
Q47.9531 72.3594 53.5156 70.5156" id="BitstreamVeraSans-Roman-53"/>
      <path d="
M45.4062 27.9844
Q45.4062 37.75 41.375 43.1094
Q37.3594 48.4844 30.0781 48.4844
Q22.8594 48.4844 18.8281 43.1094
Q14.7969 37.75 14.7969 27.9844
Q14.7969 18.2656 18.8281 12.8906
Q22.8594 7.51562 30.0781 7.51562
Q37.3594 7.51562 41.375 12.8906
Q45.4062 18.2656 45.4062 27.9844
M54.3906 6.78125
Q54.3906 -7.17188 48.1875 -13.9844
Q42 -20.7969 29.2031 -20.7969
Q24.4688 -20.7969 20.2656 -20.0938
Q16.0625 -19.3906 12.1094 -17.9219
L12.1094 -9.1875
Q16.0625 -11.3281 19.9219 -12.3438
Q23.7812 -13.375 27.7812 -13.375
Q36.625 -13.375 41.0156 -8.76562
Q45.4062 -4.15625 45.4062 5.17188
L45.4062 9.625
Q42.625 4.78125 38.2812 2.39062
Q33.9375 0 27.875 0
Q17.8281 0 11.6719 7.65625
Q5.51562 15.3281 5.51562 27.9844
Q5.51562 40.6719 11.6719 48.3281
Q17.8281 56 27.875 56
Q33.9375 56 38.2812 53.6094
Q42.625 51.2188 45.4062 46.3906
L45.4062 54.6875
L54.3906 54.6875
z
" id="BitstreamVeraSans-Roman-67"/>
     </defs>
     <g transform="translate(563.49375 51.33825)scale(0.144 -0.144)">
      <use xlink:href="#BitstreamVeraSans-Roman-53"/>
      <use x="63.4765625" xlink:href="#BitstreamVeraSans-Roman-69"/>
      <use x="91.259765625" xlink:href="#BitstreamVeraSans-Roman-6e"/>
      <use x="154.638671875" xlink:href="#BitstreamVeraSans-Roman-67"/>
      <use x="218.115234375" xlink:href="#BitstreamVeraSans-Roman-6c"/>
      <use x="245.8984375" xlink:href="#BitstreamVeraSans-Roman-65"/>
      <use x="307.421875" xlink:href="#BitstreamVeraSans-Roman-2d"/>
      <use x="343.505859375" xlink:href="#BitstreamVeraSans-Roman-63"/>
      <use x="398.486328125" xlink:href="#BitstreamVeraSans-Roman-6f"/>
      <use x="459.66796875" xlink:href="#BitstreamVeraSans-Roman-72"/>
      <use x="498.53125" xlink:href="#BitstreamVeraSans-Roman-65"/>
      <use x="560.0546875" xlink:href="#BitstreamVeraSans-Roman-20"/>
      <use x="591.841796875" xlink:href="#BitstreamVeraSans-Roman-70"/>
      <use x="655.318359375" xlink:href="#BitstreamVeraSans-Roman-65"/>
      <use x="716.841796875" xlink:href="#BitstreamVeraSans-Roman-61"/>
      <use x="778.12109375" xlink:href="#BitstreamVeraSans-Roman-6b"/>
     </g>
    </g>
    <g id="line2d_99">
     <path d="
M527.494 67.4348
L547.654 67.4348" style="fill:none;stroke:#0000ff;stroke-linecap:square;stroke-width:2.0;"/>
    </g>
    <g id="line2d_100"/>
    <g id="text_26">
     <!-- Single-core scalar peak -->
     <g transform="translate(563.49375 72.47475)scale(0.144 -0.144)">
      <use xlink:href="#BitstreamVeraSans-Roman-53"/>
      <use x="63.4765625" xlink:href="#BitstreamVeraSans-Roman-69"/>
      <use x="91.259765625" xlink:href="#BitstreamVeraSans-Roman-6e"/>
      <use x="154.638671875" xlink:href="#BitstreamVeraSans-Roman-67"/>
      <use x="218.115234375" xlink:href="#BitstreamVeraSans-Roman-6c"/>
      <use x="245.8984375" xlink:href="#BitstreamVeraSans-Roman-65"/>
      <use x="307.421875" xlink:href="#BitstreamVeraSans-Roman-2d"/>
      <use x="343.505859375" xlink:href="#BitstreamVeraSans-Roman-63"/>
      <use x="398.486328125" xlink:href="#BitstreamVeraSans-Roman-6f"/>
      <use x="459.66796875" xlink:href="#BitstreamVeraSans-Roman-72"/>
      <use x="498.53125" xlink:href="#BitstreamVeraSans-Roman-65"/>
      <use x="560.0546875" xlink:href="#BitstreamVeraSans-Roman-20"/>
      <use x="591.841796875" xlink:href="#BitstreamVeraSans-Roman-73"/>
      <use x="643.94140625" xlink:href="#BitstreamVeraSans-Roman-63"/>
      <use x="698.921875" xlink:href="#BitstreamVeraSans-Roman-61"/>
      <use x="760.201171875" xlink:href="#BitstreamVeraSans-Roman-6c"/>
      <use x="787.984375" xlink:href="#BitstreamVeraSans-Roman-61"/>
      <use x="849.263671875" xlink:href="#BitstreamVeraSans-Roman-72"/>
      <use x="890.376953125" xlink:href="#BitstreamVeraSans-Roman-20"/>
      <use x="922.1640625" xlink:href="#BitstreamVeraSans-Roman-70"/>
      <use x="985.640625" xlink:href="#BitstreamVeraSans-Roman-65"/>
      <use x="1047.1640625" xlink:href="#BitstreamVeraSans-Roman-61"/>
      <use x="1108.443359375" xlink:href="#BitstreamVeraSans-Roman-6b"/>
     </g>
    </g>
   </g>
  </g>
 </g>
 <defs>
  <clipPath id="pb722c94cc3">
   <rect height="345.6" width="446.4" x="48.69375" y="13.5"/>
  </clipPath>
 </defs>
</svg>
